<svg width="12" height="15" viewBox="0 0 12 15" fill="none" xmlns="http://www.w3.org/2000/svg">
<path d="M11 5.75C11 9.6875 5.75 13.625 5.75 13.625C5.75 13.625 0.5 9.6875 0.5 5.75C0.5 4.35761 1.05312 3.02226 2.03769 2.03769C3.02226 1.05312 4.35761 0.5 5.75 0.5C7.14239 0.5 8.47774 1.05312 9.46231 2.03769C10.4469 3.02226 11 4.35761 11 5.75V5.75Z" stroke="#E8E8E8" stroke-linecap="round" stroke-linejoin="round"/>
<path d="M5.75 7.71875C6.83731 7.71875 7.71875 6.83731 7.71875 5.75C7.71875 4.66269 6.83731 3.78125 5.75 3.78125C4.66269 3.78125 3.78125 4.66269 3.78125 5.75C3.78125 6.83731 4.66269 7.71875 5.75 7.71875Z" stroke="#E8E8E8" stroke-width="0.5" stroke-linecap="round" stroke-linejoin="round"/>
</svg>
