<svg width="13" height="13" viewBox="0 0 13 13" fill="none" xmlns="http://www.w3.org/2000/svg">
<path d="M12.3154 8.88029V10.5283C12.3161 10.6813 12.2827 10.8327 12.2175 10.9729C12.1522 11.1131 12.0565 11.2389 11.9365 11.3424C11.8165 11.4458 11.6748 11.5245 11.5205 11.5735C11.3662 11.6226 11.2027 11.6408 11.0405 11.627C9.24086 11.4433 7.51219 10.8657 5.99338 9.94052C4.58033 9.0971 3.3823 7.97178 2.48439 6.64448C1.49601 5.21136 0.880918 3.5797 0.688951 1.8817C0.674336 1.72979 0.693557 1.57668 0.745388 1.43213C0.797219 1.28758 0.880525 1.15475 0.990003 1.0421C1.09948 0.929445 1.23273 0.839439 1.38127 0.77781C1.52981 0.716181 1.69038 0.684279 1.85277 0.684135H3.60727C3.89109 0.681511 4.16624 0.775918 4.38144 0.949759C4.59665 1.1236 4.73721 1.36501 4.77693 1.629C4.85098 2.1564 4.98832 2.67424 5.18631 3.17265C5.265 3.36927 5.28203 3.58296 5.23539 3.78839C5.18874 3.99382 5.08038 4.18239 4.92314 4.33175L4.1804 5.02942C5.01294 6.40471 6.22524 7.54344 7.6894 8.32546L8.43213 7.62779C8.59114 7.4801 8.7919 7.37831 9.0106 7.3345C9.22931 7.29069 9.45681 7.30668 9.66613 7.38059C10.1967 7.56657 10.748 7.69557 11.3095 7.76513C11.5936 7.80278 11.8531 7.93719 12.0385 8.1428C12.224 8.34841 12.3225 8.61088 12.3154 8.88029Z" stroke="white" stroke-linecap="round" stroke-linejoin="round"/>
</svg>
