<svg width="74" height="74" viewBox="0 0 74 74" fill="none" xmlns="http://www.w3.org/2000/svg">
<g clip-path="url(#clip0_4536_1407)">
<path d="M71.558 50.4249L54.5287 65.7183C48.5748 71.0586 40.8942 74.0032 32.8992 74.0032H1.54167C0.690667 74.0032 0 73.3125 0 72.4615C0 71.6105 0.690667 70.9199 1.54167 70.9199H32.8992C40.1327 70.9199 47.0825 68.2589 52.4691 63.4243L69.4398 48.1895C71.1017 46.5276 71.4223 43.8759 70.1273 42.0753C69.3041 40.9344 68.0985 40.2438 66.7233 40.1328C65.379 40.0403 64.0408 40.512 63.0758 41.474L50.1905 53.2154C48.7937 54.6275 46.8543 55.5063 44.7114 55.5063H29.2948C28.4438 55.5063 27.7531 54.8156 27.7531 53.9646C27.7531 53.1136 28.4438 52.423 29.2948 52.423H44.7114C45.9448 52.423 47.0671 51.9358 47.8965 51.1464C47.9366 51.1002 47.9797 51.054 48.026 51.0108L48.0815 50.9614C48.8585 50.1351 49.3364 49.022 49.3364 47.7979C49.3364 45.248 47.2613 43.1729 44.7114 43.1729H26.4827C18.6603 43.1729 11.3035 46.2193 5.76892 51.7508L2.66092 55.0253C2.07817 55.6512 1.09767 55.6697 0.484083 55.0839C-0.135667 54.5011 -0.160333 53.5237 0.4255 52.907L3.56125 49.6048C9.70633 43.4597 17.8371 40.0927 26.4827 40.0927H44.7114C48.7074 40.0927 52.0035 43.1483 52.3828 47.0456L60.9482 39.2448C62.4961 37.6939 64.6976 36.8737 66.9731 37.0649C69.2301 37.2468 71.2897 38.4154 72.631 40.2777C74.8017 43.2901 74.3422 47.6561 71.5611 50.4311L71.558 50.4249ZM15.429 5.0167C15.3334 3.66928 15.8329 2.34345 16.7949 1.37836C17.7569 0.41328 19.0642 -0.0646364 20.4363 0.0124469C30.2012 0.70003 35.9979 4.37845 38.5417 11.8925C41.0885 4.37845 46.8821 0.70003 56.6501 0.0124469C57.9944 -0.0523031 59.3233 0.41328 60.2884 1.37836C61.2504 2.34036 61.753 3.66928 61.6543 5.01978C60.717 18.3151 54.2389 24.2536 40.0833 24.6452V29.2918C40.0833 30.1428 39.3927 30.8334 38.5417 30.8334C37.6907 30.8334 37 30.1428 37 29.2918V24.6452C22.8444 24.2536 16.3663 18.3151 15.429 5.0167ZM40.1049 21.5619C52.5431 21.2011 57.7632 16.4034 58.5772 4.79778C58.6111 4.34145 58.4384 3.8882 58.1085 3.55828C57.8032 3.25303 57.3993 3.08345 56.98 3.08345C56.943 3.08345 56.9091 3.08345 56.8721 3.08961C45.2633 3.9067 40.4688 9.1237 40.1049 21.5619ZM18.5062 4.79778C19.3232 16.4065 24.5402 21.2011 36.9784 21.5649C36.6177 9.12678 31.82 3.9067 20.2143 3.0927C20.1773 3.0927 20.1403 3.08653 20.1033 3.08653C19.684 3.08653 19.277 3.2592 18.9748 3.56136C18.6449 3.89128 18.4722 4.34453 18.5062 4.79778Z" fill="black"/>
</g>
<defs>
<clipPath id="clip0_4536_1407">
<rect width="74" height="74" fill="white"/>
</clipPath>
</defs>
</svg>
