<svg width="74" height="74" viewBox="0 0 74 74" fill="none" xmlns="http://www.w3.org/2000/svg">
<g clip-path="url(#clip0_17062_1162)">
<path d="M71.558 50.4252L54.5287 65.7185C48.5748 71.0589 40.8942 74.0034 32.8992 74.0034H1.54167C0.690667 74.0034 0 73.3128 0 72.4618C0 71.6108 0.690667 70.9201 1.54167 70.9201H32.8992C40.1327 70.9201 47.0825 68.2592 52.4691 63.4245L69.4398 48.1898C71.1017 46.5279 71.4223 43.8762 70.1273 42.0755C69.3041 40.9347 68.0985 40.244 66.7233 40.133C65.379 40.0405 64.0408 40.5123 63.0758 41.4743L50.1905 53.2156C48.7937 54.6278 46.8543 55.5065 44.7114 55.5065H29.2948C28.4438 55.5065 27.7531 54.8159 27.7531 53.9649C27.7531 53.1139 28.4438 52.4232 29.2948 52.4232H44.7114C45.9448 52.4232 47.0671 51.936 47.8965 51.1467C47.9366 51.1004 47.9797 51.0542 48.026 51.011L48.0815 50.9617C48.8585 50.1354 49.3364 49.0223 49.3364 47.7982C49.3364 45.2483 47.2613 43.1732 44.7114 43.1732H26.4827C18.6603 43.1732 11.3035 46.2195 5.76892 51.751L2.66092 55.0255C2.07817 55.6514 1.09767 55.6699 0.484083 55.0841C-0.135667 54.5014 -0.160333 53.5239 0.4255 52.9073L3.56125 49.605C9.70633 43.4599 17.8371 40.0929 26.4827 40.0929H44.7114C48.7074 40.0929 52.0035 43.1485 52.3828 47.0459L60.9482 39.245C62.4961 37.6941 64.6976 36.8739 66.9731 37.0651C69.2301 37.247 71.2897 38.4156 72.631 40.2779C74.8017 43.2904 74.3422 47.6564 71.5611 50.4314L71.558 50.4252ZM15.429 5.01694C15.3334 3.66952 15.8329 2.34369 16.7949 1.37861C17.7569 0.413524 19.0642 -0.0643923 20.4363 0.012691C30.2012 0.700274 35.9979 4.37869 38.5417 11.8928C41.0885 4.37869 46.8821 0.700274 56.6501 0.012691C57.9944 -0.052059 59.3233 0.413524 60.2884 1.37861C61.2504 2.34061 61.753 3.66952 61.6543 5.02002C60.717 18.3154 54.2389 24.2539 40.0833 24.6454V29.292C40.0833 30.143 39.3927 30.8337 38.5417 30.8337C37.6907 30.8337 37 30.143 37 29.292V24.6454C22.8444 24.2539 16.3663 18.3154 15.429 5.01694ZM40.1049 21.5621C52.5431 21.2014 57.7632 16.4037 58.5772 4.79802C58.6111 4.34169 58.4384 3.88844 58.1085 3.55852C57.8032 3.25327 57.3993 3.08369 56.98 3.08369C56.943 3.08369 56.9091 3.08369 56.8721 3.08986C45.2633 3.90694 40.4688 9.12394 40.1049 21.5621ZM18.5062 4.79802C19.3232 16.4068 24.5402 21.2014 36.9784 21.5652C36.6177 9.12702 31.82 3.90694 20.2143 3.09294C20.1773 3.09294 20.1403 3.08677 20.1033 3.08677C19.684 3.08677 19.277 3.25944 18.9748 3.56161C18.6449 3.89152 18.4722 4.34477 18.5062 4.79802Z" fill="black"/>
</g>
<defs>
<clipPath id="clip0_17062_1162">
<rect width="74" height="74" fill="white"/>
</clipPath>
</defs>
</svg>
