<svg width="74" height="74" viewBox="0 0 74 74" fill="none" xmlns="http://www.w3.org/2000/svg">
<path d="M27.75 37C37.9528 37 46.25 28.7027 46.25 18.5C46.25 8.29725 37.9528 0 27.75 0C17.5473 0 9.25 8.29725 9.25 18.5C9.25 28.7027 17.5473 37 27.75 37ZM27.75 3.08333C36.2508 3.08333 43.1667 9.99925 43.1667 18.5C43.1667 27.0007 36.2508 33.9167 27.75 33.9167C19.2493 33.9167 12.3333 27.0007 12.3333 18.5C12.3333 9.99925 19.2493 3.08333 27.75 3.08333ZM32.375 44.7083C32.375 45.5593 31.6843 46.25 30.8333 46.25H29.2917C14.8401 46.25 3.08333 58.0067 3.08333 72.4583C3.08333 73.3093 2.39267 74 1.54167 74C0.690667 74 0 73.3093 0 72.4583C0 56.3078 13.1412 43.1667 29.2917 43.1667H30.8333C31.6843 43.1667 32.375 43.8573 32.375 44.7083ZM73.7348 51.6736C73.1089 49.9562 71.4593 48.803 69.6309 48.803H62.2371L59.5978 41.3845C58.9626 39.6856 57.3192 38.5417 55.5031 38.5417C53.687 38.5417 52.0436 39.6856 51.4023 41.4061L48.7691 48.803H41.3753C39.5499 48.803 37.9034 49.9531 37.2744 51.6612C36.6423 53.3756 37.1542 55.3212 38.5725 56.5206L44.4678 61.3182L42.1338 68.3236C41.5818 70.0903 42.2047 72.0236 43.6847 73.1274C44.4339 73.6917 45.3651 74 46.3024 74C47.1719 74 48.0137 73.7441 48.7321 73.2631L55.5401 68.7059L62.4714 73.2199C64.0254 74.2251 66.0481 74.148 67.525 73.0195C68.9927 71.8879 69.5847 69.9485 68.9958 68.1602L66.5877 61.2936L72.4553 56.5144C73.852 55.3366 74.37 53.391 73.7441 51.6767L73.7348 51.6736ZM70.4788 54.1372L63.7911 59.5854C63.2854 59.9955 63.0912 60.6769 63.3101 61.2905L66.0697 69.153C66.2423 69.671 66.0697 70.2445 65.638 70.5713C65.1971 70.9043 64.602 70.929 64.1457 70.633L56.3633 65.564C55.8484 65.2279 55.1793 65.2341 54.6644 65.5732L47.0116 70.6978C46.5707 70.9907 45.9571 70.9814 45.5316 70.6546C45.0938 70.3308 44.9118 69.7604 45.0691 69.264L47.7269 61.2751C47.9273 60.6677 47.7331 59.9955 47.2367 59.5947L40.5397 54.1464C40.1327 53.8011 39.9816 53.2307 40.1697 52.725C40.3547 52.2193 40.8388 51.8832 41.3753 51.8832H49.8575C50.5112 51.8832 51.0908 51.4732 51.3098 50.8596L54.3037 42.4575C54.6768 41.4554 56.3448 41.477 56.7056 42.4359L59.7057 50.8565C59.9215 51.4701 60.5042 51.8802 61.1579 51.8802H69.6402C70.1798 51.8802 70.6638 52.2193 70.8488 52.725C71.0338 53.2307 70.8797 53.8042 70.4912 54.1341L70.4788 54.1372Z" fill="black"/>
</svg>
