<svg width="74" height="74" viewBox="0 0 74 74" fill="none" xmlns="http://www.w3.org/2000/svg">
<path d="M0 29.2916C0 28.4406 0.690667 27.7499 1.54167 27.7499H16.9583C17.8093 27.7499 18.5 28.4406 18.5 29.2916C18.5 30.1426 17.8093 30.8333 16.9583 30.8333H1.54167C0.690667 30.8333 0 30.1426 0 29.2916ZM74 32.3749V47.7916C74 52.4043 71.0893 56.3509 67.007 57.8926C67.5497 59.0766 67.8333 60.3531 67.8333 61.6666C67.8333 66.7664 63.6832 70.9166 58.5833 70.9166C53.4835 70.9166 49.3333 66.7664 49.3333 61.6666C49.3333 60.6059 49.5183 59.5668 49.876 58.5833H24.124C24.4817 59.5668 24.6667 60.6059 24.6667 61.6666C24.6667 66.7664 20.5165 70.9166 15.4167 70.9166C10.3168 70.9166 6.16667 66.7664 6.16667 61.6666C6.16667 60.3531 6.45033 59.0766 6.993 57.8926C2.91067 56.3509 0 52.4043 0 47.7916V38.5416C0 37.6906 0.690667 36.9999 1.54167 36.9999C2.39267 36.9999 3.08333 37.6906 3.08333 38.5416V47.7916C3.08333 52.0404 6.53975 55.4999 10.7917 55.4999H49.3333V16.9583C49.3333 11.0074 44.4925 6.16659 38.5417 6.16659C37.6907 6.16659 37 5.47592 37 4.62492C37 3.77392 37.6907 3.08325 38.5417 3.08325C46.1914 3.08325 52.4167 9.3085 52.4167 16.9583V18.4999H60.125C67.7747 18.4999 74 24.7252 74 32.3749ZM52.4167 21.5833V36.9999H70.9167V32.3749C70.9167 26.4241 66.0758 21.5833 60.125 21.5833H52.4167ZM20.7292 58.5833H10.7917C10.5666 58.5833 10.3415 58.574 10.1164 58.5617C9.546 59.5144 9.25 60.572 9.25 61.6666C9.25 65.0675 12.0157 67.8333 15.4167 67.8333C18.8176 67.8333 21.5833 65.0675 21.5833 61.6666C21.5833 60.5813 21.2904 59.5298 20.7292 58.5833ZM63.8836 58.5617C63.6616 58.5771 63.4365 58.5833 63.2083 58.5833H53.2708C52.7096 59.5298 52.4167 60.5813 52.4167 61.6666C52.4167 65.0675 55.1824 67.8333 58.5833 67.8333C61.9842 67.8333 64.75 65.0675 64.75 61.6666C64.75 60.572 64.4509 59.5144 63.8836 58.5617ZM70.9167 47.7916V40.0833H52.4167V55.4999H63.2083C67.4603 55.4999 70.9167 52.0404 70.9167 47.7916ZM1.54167 6.16659H29.2917C30.1427 6.16659 30.8333 5.47592 30.8333 4.62492C30.8333 3.77392 30.1427 3.08325 29.2917 3.08325H1.54167C0.690667 3.08325 0 3.77392 0 4.62492C0 5.47592 0.690667 6.16659 1.54167 6.16659ZM1.54167 18.4999H23.125C23.976 18.4999 24.6667 17.8093 24.6667 16.9583C24.6667 16.1073 23.976 15.4166 23.125 15.4166H1.54167C0.690667 15.4166 0 16.1073 0 16.9583C0 17.8093 0.690667 18.4999 1.54167 18.4999Z" fill="black"/>
</svg>
