<svg width="31" height="30" viewBox="0 0 31 30" fill="none" xmlns="http://www.w3.org/2000/svg">
<path d="M0 1.25457C0 0.921834 0.132177 0.60273 0.367453 0.367453C0.60273 0.132177 0.921834 0 1.25457 0H2.18796C3.77708 0 4.73055 1.06889 5.27419 2.0625C5.63718 2.72492 5.8998 3.49271 6.10555 4.18857C6.1612 4.18418 6.217 4.18195 6.27283 4.18188H27.1789C28.5673 4.18188 29.5709 5.51005 29.1895 6.84658L26.1318 17.5673C25.8576 18.5288 25.2776 19.3749 24.4796 19.9774C23.6815 20.5798 22.7089 20.9058 21.709 20.9061H11.7595C10.7516 20.9061 9.77165 20.5752 8.97018 19.9641C8.16872 19.353 7.59012 18.4957 7.32331 17.5238L6.05202 12.8869L3.94435 5.78104L3.94268 5.76765C3.68173 4.8192 3.43751 3.93097 3.07285 3.26856C2.72324 2.62455 2.44222 2.50913 2.18963 2.50913H1.25457C0.921834 2.50913 0.60273 2.37695 0.367453 2.14168C0.132177 1.9064 0 1.5873 0 1.25457ZM8.48588 12.278L9.74212 16.8597C9.99303 17.7663 10.8177 18.3969 11.7595 18.3969H21.709C22.1635 18.3969 22.6056 18.2488 22.9684 17.9751C23.3312 17.7013 23.5949 17.3168 23.7196 16.8798L26.6252 6.69101H6.8332L8.46246 12.1894L8.48588 12.278Z" fill="#252525"/>
<path d="M14.2184 25.9278C14.2184 26.8151 13.8659 27.666 13.2385 28.2934C12.6111 28.9208 11.7601 29.2733 10.8729 29.2733C9.98557 29.2733 9.13462 28.9208 8.50722 28.2934C7.87982 27.666 7.52734 26.8151 7.52734 25.9278C7.52734 25.0405 7.87982 24.1896 8.50722 23.5622C9.13462 22.9347 9.98557 22.5823 10.8729 22.5823C11.7601 22.5823 12.6111 22.9347 13.2385 23.5622C13.8659 24.1896 14.2184 25.0405 14.2184 25.9278ZM11.7092 25.9278C11.7092 25.706 11.6211 25.4932 11.4643 25.3364C11.3074 25.1795 11.0947 25.0914 10.8729 25.0914C10.651 25.0914 10.4383 25.1795 10.2814 25.3364C10.1246 25.4932 10.0365 25.706 10.0365 25.9278C10.0365 26.1496 10.1246 26.3623 10.2814 26.5192C10.4383 26.676 10.651 26.7642 10.8729 26.7642C11.0947 26.7642 11.3074 26.676 11.4643 26.5192C11.6211 26.3623 11.7092 26.1496 11.7092 25.9278Z" fill="#252525"/>
<path d="M25.9283 25.9278C25.9283 26.8151 25.5758 27.666 24.9484 28.2934C24.321 28.9208 23.4701 29.2733 22.5828 29.2733C21.6955 29.2733 20.8446 28.9208 20.2172 28.2934C19.5898 27.666 19.2373 26.8151 19.2373 25.9278C19.2373 25.0405 19.5898 24.1896 20.2172 23.5622C20.8446 22.9347 21.6955 22.5823 22.5828 22.5823C23.4701 22.5823 24.321 22.9347 24.9484 23.5622C25.5758 24.1896 25.9283 25.0405 25.9283 25.9278ZM23.4192 25.9278C23.4192 25.706 23.3311 25.4932 23.1742 25.3364C23.0174 25.1795 22.8046 25.0914 22.5828 25.0914C22.361 25.0914 22.1483 25.1795 21.9914 25.3364C21.8346 25.4932 21.7464 25.706 21.7464 25.9278C21.7464 26.1496 21.8346 26.3623 21.9914 26.5192C22.1483 26.676 22.361 26.7642 22.5828 26.7642C22.8046 26.7642 23.0174 26.676 23.1742 26.5192C23.3311 26.3623 23.4192 26.1496 23.4192 25.9278Z" fill="#252525"/>
<circle cx="22.709" cy="7.47388" r="7.47388" fill="#00C371"/>
<path d="M22.4502 12.1246C21.9275 12.1246 21.4567 12.0207 21.038 11.8128C20.6192 11.6049 20.2836 11.3198 20.0312 10.9575C19.7787 10.5951 19.6406 10.1823 19.6169 9.71898H20.686C20.7276 10.1318 20.9147 10.4734 21.2474 10.7436C21.583 11.0109 21.9839 11.1446 22.4502 11.1446C22.8244 11.1446 23.157 11.0569 23.4481 10.8817C23.7421 10.7065 23.9723 10.4659 24.1386 10.16C24.3079 9.85115 24.3925 9.50218 24.3925 9.11311C24.3925 8.71514 24.3049 8.36023 24.1297 8.04839C23.9574 7.73357 23.7198 7.48558 23.4169 7.30441C23.114 7.12325 22.768 7.03118 22.3789 7.02821C22.0997 7.02524 21.8131 7.0683 21.5191 7.1574C21.2251 7.24353 20.983 7.3549 20.793 7.49152L19.7594 7.36678L20.3118 2.87622H25.0519V3.8563H21.2384L20.9177 6.54708H20.9711C21.1583 6.39858 21.3929 6.27533 21.675 6.17732C21.9572 6.07931 22.2512 6.03031 22.5571 6.03031C23.1155 6.03031 23.6129 6.16395 24.0495 6.43125C24.4891 6.69558 24.8336 7.05791 25.083 7.51825C25.3355 7.97859 25.4617 8.50427 25.4617 9.09529C25.4617 9.6774 25.331 10.1971 25.0697 10.6545C24.8113 11.1089 24.4549 11.4683 24.0005 11.7326C23.5461 11.994 23.0293 12.1246 22.4502 12.1246Z" fill="white"/>
</svg>
