<svg width="74" height="74" viewBox="0 0 74 74" fill="none" xmlns="http://www.w3.org/2000/svg">
<g clip-path="url(#clip0_4536_1416)">
<path d="M23.7633 25.5703C24.9688 26.7759 24.9688 28.7276 23.7633 29.9301C22.5577 31.1357 20.6059 31.1357 19.4034 29.9301C18.1978 28.7245 18.1978 26.7728 19.4034 25.5703C20.609 24.3647 22.5608 24.3647 23.7633 25.5703ZM68.8046 41.5975L67.488 42.9572C68.2157 45.4701 67.5928 48.2914 65.6164 50.2678L44.7546 71.8111C43.3363 73.2294 41.477 74.0002 39.4975 74.0002C37.518 74.0002 35.6588 73.2294 34.2589 71.8295L3.17584 40.7465L6.29309 12.5494L34.5148 8.68904L65.6164 39.7875C65.7274 39.8985 65.8323 40.0126 65.934 40.1267L66.6093 39.4299C67.4418 38.6005 67.8888 37.512 67.8888 36.3527C67.8888 35.1934 67.4387 34.105 66.6278 33.294L36.6084 3.27779L11.0908 6.76812L10.6745 3.71254L37.7061 0.015625L68.8077 31.1141C71.6998 34.0032 71.6998 38.7053 68.8077 41.5944L68.8046 41.5975ZM63.4365 41.9705L33.4203 11.9512L9.09276 15.2781L6.40409 39.6149L36.4388 69.6496C38.0699 71.2838 40.9251 71.2838 42.5562 69.6496L63.418 48.1064C65.1231 46.4013 65.1231 43.6571 63.4365 41.9705Z" fill="black"/>
</g>
<defs>
<clipPath id="clip0_4536_1416">
<rect width="74" height="74" fill="white"/>
</clipPath>
</defs>
</svg>
