<svg width="74" height="74" viewBox="0 0 74 74" fill="none" xmlns="http://www.w3.org/2000/svg">
<g clip-path="url(#clip0_17062_869)">
<path d="M23.7633 25.57C24.9688 26.7756 24.9688 28.7274 23.7633 29.9299C22.5577 31.1355 20.6059 31.1355 19.4034 29.9299C18.1978 28.7243 18.1978 26.7725 19.4034 25.57C20.609 24.3645 22.5608 24.3645 23.7633 25.57ZM68.8046 41.5972L67.488 42.957C68.2157 45.4699 67.5928 48.2911 65.6164 50.2676L44.7546 71.8108C43.3363 73.2291 41.477 74 39.4975 74C37.518 74 35.6588 73.2291 34.2589 71.8293L3.17584 40.7462L6.29309 12.5491L34.5148 8.6888L65.6164 39.7873C65.7274 39.8983 65.8323 40.0124 65.934 40.1265L66.6093 39.4296C67.4418 38.6002 67.8888 37.5118 67.8888 36.3525C67.8888 35.1931 67.4387 34.1047 66.6278 33.2938L36.6084 3.27755L11.0908 6.76788L10.6745 3.7123L37.7061 0.0153809L68.8077 31.1139C71.6998 34.003 71.6998 38.705 68.8077 41.5941L68.8046 41.5972ZM63.4365 41.9703L33.4203 11.951L9.09276 15.2779L6.40409 39.6146L36.4388 69.6494C38.0699 71.2836 40.9251 71.2836 42.5562 69.6494L63.418 48.1061C65.1231 46.4011 65.1231 43.6569 63.4365 41.9703Z" fill="black"/>
</g>
<defs>
<clipPath id="clip0_17062_869">
<rect width="74" height="74" fill="white"/>
</clipPath>
</defs>
</svg>
