<svg width="74" height="74" viewBox="0 0 74 74" fill="none" xmlns="http://www.w3.org/2000/svg">
<g clip-path="url(#clip0_4516_926)">
<path d="M0 29.2918C0 28.4408 0.690667 27.7502 1.54167 27.7502H16.9583C17.8093 27.7502 18.5 28.4408 18.5 29.2918C18.5 30.1428 17.8093 30.8335 16.9583 30.8335H1.54167C0.690667 30.8335 0 30.1428 0 29.2918ZM74 32.3752V47.7918C74 52.4045 71.0893 56.3512 67.007 57.8928C67.5497 59.0768 67.8333 60.3533 67.8333 61.6668C67.8333 66.7667 63.6832 70.9168 58.5833 70.9168C53.4835 70.9168 49.3333 66.7667 49.3333 61.6668C49.3333 60.6062 49.5183 59.5671 49.876 58.5835H24.124C24.4817 59.5671 24.6667 60.6062 24.6667 61.6668C24.6667 66.7667 20.5165 70.9168 15.4167 70.9168C10.3168 70.9168 6.16667 66.7667 6.16667 61.6668C6.16667 60.3533 6.45033 59.0768 6.993 57.8928C2.91067 56.3512 0 52.4045 0 47.7918V38.5418C0 37.6908 0.690667 37.0002 1.54167 37.0002C2.39267 37.0002 3.08333 37.6908 3.08333 38.5418V47.7918C3.08333 52.0407 6.53975 55.5002 10.7917 55.5002H49.3333V16.9585C49.3333 11.0077 44.4925 6.16683 38.5417 6.16683C37.6907 6.16683 37 5.47616 37 4.62516C37 3.77416 37.6907 3.0835 38.5417 3.0835C46.1914 3.0835 52.4167 9.30875 52.4167 16.9585V18.5002H60.125C67.7747 18.5002 74 24.7254 74 32.3752ZM52.4167 21.5835V37.0002H70.9167V32.3752C70.9167 26.4243 66.0758 21.5835 60.125 21.5835H52.4167ZM20.7292 58.5835H10.7917C10.5666 58.5835 10.3415 58.5742 10.1164 58.5619C9.546 59.5147 9.25 60.5723 9.25 61.6668C9.25 65.0677 12.0157 67.8335 15.4167 67.8335C18.8176 67.8335 21.5833 65.0677 21.5833 61.6668C21.5833 60.5815 21.2904 59.5301 20.7292 58.5835ZM63.8836 58.5619C63.6616 58.5773 63.4365 58.5835 63.2083 58.5835H53.2708C52.7096 59.5301 52.4167 60.5815 52.4167 61.6668C52.4167 65.0677 55.1824 67.8335 58.5833 67.8335C61.9842 67.8335 64.75 65.0677 64.75 61.6668C64.75 60.5723 64.4509 59.5147 63.8836 58.5619ZM70.9167 47.7918V40.0835H52.4167V55.5002H63.2083C67.4603 55.5002 70.9167 52.0407 70.9167 47.7918ZM1.54167 6.16683H29.2917C30.1427 6.16683 30.8333 5.47616 30.8333 4.62516C30.8333 3.77416 30.1427 3.0835 29.2917 3.0835H1.54167C0.690667 3.0835 0 3.77416 0 4.62516C0 5.47616 0.690667 6.16683 1.54167 6.16683ZM1.54167 18.5002H23.125C23.976 18.5002 24.6667 17.8095 24.6667 16.9585C24.6667 16.1075 23.976 15.4168 23.125 15.4168H1.54167C0.690667 15.4168 0 16.1075 0 16.9585C0 17.8095 0.690667 18.5002 1.54167 18.5002Z" fill="black"/>
</g>
<defs>
<clipPath id="clip0_4516_926">
<rect width="74" height="74" fill="white"/>
</clipPath>
</defs>
</svg>
